<?xml version="1.0" encoding="utf-8"?>
<svg id="svg" version="1.1" width="240pt" height="138pt" viewBox="0 0 240.000000 138.000000" preserveAspectRatio="xMidYMid meet" xmlns="http://www.w3.org/2000/svg" xmlns:xlink="http://www.w3.org/1999/xlink" style="display: block;"><g id="svgg"><path id="path0" d="M131.717 0.833 C 131.717 1.337,131.748 1.544,131.786 1.292 C 131.824 1.040,131.824 0.627,131.786 0.375 C 131.748 0.123,131.717 0.329,131.717 0.833 M159.832 2.242 C 160.061 2.368,160.339 2.684,160.450 2.944 C 160.561 3.204,160.655 3.296,160.659 3.147 C 160.670 2.762,160.026 1.999,159.696 2.006 C 159.497 2.010,159.535 2.078,159.832 2.242 M161.375 8.448 C 161.535 8.490,161.798 8.490,161.958 8.448 C 162.119 8.406,161.987 8.372,161.667 8.372 C 161.346 8.372,161.215 8.406,161.375 8.448 M162.798 8.751 C 163.386 9.007,163.833 9.808,163.833 10.606 C 163.833 10.853,163.880 11.009,163.937 10.952 C 164.436 10.452,163.392 8.494,162.633 8.507 C 162.307 8.512,162.331 8.548,162.798 8.751 M202.667 48.120 C 201.918 48.402,200.833 49.658,200.833 50.243 C 200.833 50.587,201.640 50.230,202.114 49.676 C 202.423 49.315,202.824 48.973,203.005 48.915 C 203.213 48.849,203.333 48.663,203.333 48.405 C 203.333 48.007,203.162 47.934,202.667 48.120 M197.345 51.106 C 197.155 51.347,197.003 51.666,197.008 51.814 C 197.012 51.962,197.106 51.871,197.217 51.611 C 197.328 51.351,197.606 51.035,197.834 50.909 C 198.131 50.744,198.170 50.677,197.970 50.673 C 197.817 50.669,197.535 50.864,197.345 51.106 M228.293 51.091 C 228.496 51.232,228.731 51.589,228.815 51.882 C 228.925 52.261,228.974 52.314,228.985 52.064 C 229.002 51.669,228.413 50.833,228.117 50.833 C 228.012 50.833,228.091 50.949,228.293 51.091 M196.875 53.083 C 196.877 53.450,196.911 53.580,196.951 53.373 C 196.991 53.166,196.990 52.866,196.948 52.706 C 196.906 52.547,196.874 52.717,196.875 53.083 M194.106 73.125 C 194.211 73.194,194.407 73.512,194.543 73.833 C 194.990 74.887,196.833 76.105,196.833 75.346 C 196.833 74.849,195.129 73.233,194.471 73.107 C 194.166 73.048,194.002 73.057,194.106 73.125 M57.625 95.958 C 58.565 95.987,60.102 95.987,61.042 95.958 C 61.981 95.928,61.212 95.904,59.333 95.904 C 57.454 95.904,56.685 95.928,57.625 95.958 M72.792 95.958 C 73.731 95.987,75.269 95.987,76.208 95.958 C 77.148 95.928,76.379 95.904,74.500 95.904 C 72.621 95.904,71.852 95.928,72.792 95.958 M209.125 95.957 C 209.698 95.989,210.635 95.989,211.208 95.957 C 211.781 95.924,211.313 95.898,210.167 95.898 C 209.021 95.898,208.552 95.924,209.125 95.957 M214.792 95.957 C 215.365 95.989,216.302 95.989,216.875 95.957 C 217.448 95.924,216.979 95.898,215.833 95.898 C 214.688 95.898,214.219 95.924,214.792 95.957 M323.792 95.958 C 324.731 95.987,326.269 95.987,327.208 95.958 C 328.148 95.928,327.379 95.904,325.500 95.904 C 323.621 95.904,322.852 95.928,323.792 95.958 M338.792 95.958 C 339.731 95.987,341.269 95.987,342.208 95.958 C 343.148 95.928,342.379 95.904,340.500 95.904 C 338.621 95.904,337.852 95.928,338.792 95.958 M85.989 96.447 C 86.087 96.648,86.167 96.930,86.167 97.076 C 86.167 97.462,87.932 99.167,88.332 99.167 C 89.081 99.167,87.942 97.380,86.942 96.987 C 86.653 96.873,86.280 96.623,86.114 96.432 L 85.811 96.083 85.989 96.447 M313.894 96.417 C 313.841 96.554,313.487 96.806,313.107 96.976 C 311.990 97.476,310.879 99.167,311.668 99.167 C 312.068 99.167,313.833 97.462,313.833 97.076 C 313.833 96.930,313.911 96.666,314.006 96.489 C 314.101 96.312,314.136 96.167,314.084 96.167 C 314.032 96.167,313.946 96.279,313.894 96.417 M202.399 97.067 C 201.627 97.425,200.833 98.433,200.833 99.053 C 200.833 99.438,201.612 99.033,202.415 98.230 C 203.664 96.981,203.657 96.482,202.399 97.067 M197.333 99.833 C 197.150 100.017,197.010 100.335,197.023 100.542 L 197.045 100.917 197.117 100.545 C 197.157 100.341,197.382 100.022,197.617 99.837 C 197.852 99.651,197.960 99.500,197.856 99.500 C 197.752 99.500,197.517 99.650,197.333 99.833 M228.000 99.713 C 228.229 99.828,228.555 100.183,228.723 100.502 C 229.028 101.079,229.029 101.080,228.925 100.583 C 228.808 100.032,228.281 99.499,227.857 99.502 C 227.678 99.504,227.728 99.577,228.000 99.713 M196.872 101.833 C 196.872 102.154,196.906 102.285,196.948 102.125 C 196.990 101.965,196.990 101.702,196.948 101.542 C 196.906 101.381,196.872 101.513,196.872 101.833 M293.375 105.782 C 293.535 105.823,293.798 105.823,293.958 105.782 C 294.119 105.740,293.987 105.705,293.667 105.705 C 293.346 105.705,293.215 105.740,293.375 105.782 M25.076 106.409 C 24.851 106.634,24.667 106.990,24.667 107.201 C 24.667 107.524,24.712 107.494,24.959 107.002 C 25.119 106.683,25.438 106.328,25.667 106.213 C 25.982 106.055,26.011 106.004,25.784 106.002 C 25.620 106.001,25.301 106.184,25.076 106.409 M374.465 106.174 C 374.675 106.259,374.954 106.573,375.084 106.872 C 375.214 107.172,375.323 107.318,375.327 107.197 C 375.343 106.653,374.793 105.998,374.333 106.013 C 374.196 106.018,374.255 106.090,374.465 106.174 M375.372 108.333 C 375.372 108.654,375.406 108.785,375.448 108.625 C 375.490 108.465,375.490 108.202,375.448 108.042 C 375.406 107.881,375.372 108.013,375.372 108.333 M24.539 108.500 C 24.539 108.821,24.573 108.952,24.615 108.792 C 24.657 108.631,24.657 108.369,24.615 108.208 C 24.573 108.048,24.539 108.179,24.539 108.500 M118.875 118.782 C 119.035 118.823,119.298 118.823,119.458 118.782 C 119.619 118.740,119.487 118.705,119.167 118.705 C 118.846 118.705,118.715 118.740,118.875 118.782 M11.372 121.333 C 11.372 121.654,11.406 121.785,11.448 121.625 C 11.490 121.465,11.490 121.202,11.448 121.042 C 11.406 120.881,11.372 121.013,11.372 121.333 M388.539 121.500 C 388.539 121.821,388.573 121.952,388.615 121.792 C 388.657 121.631,388.657 121.369,388.615 121.208 C 388.573 121.048,388.539 121.179,388.539 121.500 M8.592 122.490 C 8.431 122.668,8.338 122.912,8.386 123.032 C 8.445 123.178,8.478 123.156,8.487 122.968 C 8.494 122.813,8.667 122.569,8.870 122.426 C 9.074 122.283,9.161 122.167,9.063 122.167 C 8.965 122.167,8.753 122.312,8.592 122.490 M391.286 122.570 C 391.612 123.006,391.730 123.026,391.574 122.620 C 391.519 122.477,391.365 122.317,391.232 122.266 C 391.049 122.196,391.063 122.271,391.286 122.570 M8.205 124.500 C 8.205 124.821,8.240 124.952,8.282 124.792 C 8.323 124.631,8.323 124.369,8.282 124.208 C 8.240 124.048,8.205 124.179,8.205 124.500 M272.874 125.749 C 272.302 125.997,272.022 126.501,271.899 127.500 C 271.843 127.956,271.877 127.908,272.058 127.278 C 272.333 126.319,272.571 126.053,273.434 125.746 C 273.791 125.619,273.933 125.514,273.750 125.514 C 273.567 125.513,273.172 125.619,272.874 125.749 M268.759 132.324 C 268.598 132.502,268.505 132.745,268.553 132.865 C 268.620 133.033,268.643 133.029,268.654 132.846 C 268.661 132.716,268.791 132.472,268.942 132.305 C 269.094 132.137,269.181 132.000,269.135 132.000 C 269.089 132.000,268.920 132.146,268.759 132.324 M3.932 132.878 C 2.770 133.543,2.052 135.000,2.887 135.000 C 3.163 135.000,3.347 134.885,3.415 134.671 C 3.473 134.491,3.815 134.090,4.176 133.780 C 5.256 132.856,5.084 132.219,3.932 132.878 M395.167 132.859 C 395.167 133.071,395.436 133.449,395.824 133.780 C 396.185 134.090,396.527 134.491,396.585 134.671 C 396.653 134.885,396.837 135.000,397.113 135.000 C 397.948 135.000,397.230 133.543,396.068 132.878 C 395.257 132.414,395.167 132.412,395.167 132.859 M332.841 133.333 C 332.809 133.770,332.377 134.191,331.720 134.425 C 331.370 134.550,331.210 134.655,331.364 134.659 C 332.147 134.680,333.153 133.813,332.945 133.297 C 332.884 133.144,332.854 133.154,332.841 133.333 M333.667 133.996 C 333.667 134.215,334.483 134.739,334.616 134.606 C 334.675 134.548,334.635 134.500,334.528 134.500 C 334.421 134.500,334.183 134.350,334.000 134.167 C 333.817 133.983,333.667 133.907,333.667 133.996 M67.219 134.375 C 67.394 134.535,67.660 134.662,67.810 134.656 C 67.983 134.649,67.933 134.586,67.676 134.483 C 67.451 134.393,67.185 134.267,67.084 134.202 C 66.984 134.137,67.044 134.215,67.219 134.375 M68.794 134.785 C 69.001 134.824,69.301 134.823,69.460 134.781 C 69.620 134.739,69.450 134.707,69.083 134.709 C 68.717 134.711,68.586 134.745,68.794 134.785 M121.872 135.333 C 121.872 135.654,121.906 135.785,121.948 135.625 C 121.990 135.465,121.990 135.202,121.948 135.042 C 121.906 134.881,121.872 135.012,121.872 135.333 M320.955 134.954 C 321.250 134.990,321.775 134.991,322.121 134.955 C 322.467 134.919,322.225 134.889,321.583 134.888 C 320.942 134.887,320.659 134.917,320.955 134.954 M343.958 134.954 C 344.256 134.991,344.744 134.991,345.042 134.954 C 345.340 134.917,345.096 134.887,344.500 134.887 C 343.904 134.887,343.660 134.917,343.958 134.954 M316.105 138.682 C 315.973 139.346,315.012 140.306,314.349 140.439 C 313.806 140.547,313.635 140.833,314.114 140.833 C 315.134 140.833,316.500 139.467,316.500 138.447 C 316.500 137.969,316.214 138.139,316.105 138.682 M267.401 139.317 C 266.741 139.617,266.169 140.317,265.924 141.125 C 265.732 141.761,266.558 141.630,266.979 140.958 C 267.165 140.660,267.546 140.267,267.825 140.083 C 268.141 139.876,268.333 139.608,268.333 139.375 C 268.333 138.924,268.275 138.920,267.401 139.317 M49.548 140.617 C 49.345 140.827,49.239 141.000,49.313 141.000 C 49.476 141.000,50.082 140.352,49.985 140.282 C 49.947 140.255,49.751 140.406,49.548 140.617 M350.000 140.313 C 350.000 140.476,350.648 141.082,350.718 140.985 C 350.745 140.947,350.594 140.751,350.383 140.548 C 350.173 140.345,350.000 140.239,350.000 140.313 M45.896 141.448 C 45.701 141.486,45.308 141.808,45.022 142.164 C 44.737 142.519,44.352 142.858,44.168 142.916 C 43.797 143.034,43.686 143.835,44.042 143.831 C 44.596 143.823,45.604 143.040,45.956 142.344 C 46.161 141.938,46.423 141.546,46.539 141.472 C 46.769 141.326,46.558 141.318,45.896 141.448 M118.167 143.221 C 118.167 143.466,117.556 144.073,117.167 144.216 C 116.973 144.287,116.984 144.310,117.216 144.320 C 117.577 144.336,118.333 143.617,118.333 143.258 C 118.333 143.116,118.296 143.000,118.250 143.000 C 118.204 143.000,118.167 143.099,118.167 143.221 M265.039 144.000 C 265.039 144.321,265.073 144.452,265.115 144.292 C 265.157 144.131,265.157 143.869,265.115 143.708 C 265.073 143.548,265.039 143.679,265.039 144.000 M43.564 144.740 C 43.513 144.872,43.501 145.116,43.537 145.282 C 43.578 145.470,43.635 145.380,43.689 145.042 C 43.780 144.474,43.721 144.332,43.564 144.740 M356.314 145.036 C 356.390 145.499,356.414 145.523,356.466 145.189 C 356.500 144.972,356.460 144.726,356.376 144.642 C 356.283 144.550,356.259 144.705,356.314 145.036 M43.333 145.935 C 43.333 146.409,42.865 147.000,42.270 147.275 L 41.750 147.516 42.250 147.412 C 43.054 147.244,43.838 146.116,43.433 145.710 C 43.378 145.656,43.333 145.757,43.333 145.935 M356.587 146.166 C 356.692 146.866,357.075 147.277,357.750 147.414 L 358.250 147.516 357.750 147.284 C 357.151 147.005,356.863 146.681,356.655 146.052 C 356.511 145.618,356.506 145.627,356.587 146.166 M115.000 146.152 C 115.000 146.357,114.781 146.745,114.513 147.013 C 113.988 147.538,114.039 147.654,114.616 147.250 C 114.967 147.004,115.295 146.072,115.099 145.877 C 115.045 145.822,115.000 145.946,115.000 146.152 M111.667 149.721 C 111.667 149.966,111.056 150.573,110.667 150.716 C 110.473 150.787,110.484 150.810,110.716 150.820 C 111.077 150.836,111.833 150.117,111.833 149.758 C 111.833 149.616,111.796 149.500,111.750 149.500 C 111.704 149.500,111.667 149.599,111.667 149.721 M304.208 151.115 C 304.369 151.157,304.631 151.157,304.792 151.115 C 304.952 151.073,304.821 151.039,304.500 151.039 C 304.179 151.039,304.048 151.073,304.208 151.115 M108.500 152.652 C 108.500 152.857,108.281 153.245,108.013 153.513 C 107.745 153.781,107.595 154.000,107.679 154.000 C 108.125 154.000,108.887 152.665,108.603 152.381 C 108.547 152.324,108.500 152.446,108.500 152.652 M262.262 154.929 C 262.118 155.073,262.002 155.279,262.005 155.387 C 262.008 155.495,262.085 155.454,262.177 155.297 C 262.269 155.139,262.473 154.936,262.630 154.844 C 262.788 154.752,262.828 154.675,262.720 154.672 C 262.612 154.669,262.406 154.785,262.262 154.929 M105.167 156.221 C 105.167 156.466,104.556 157.073,104.167 157.216 C 103.973 157.287,103.984 157.310,104.216 157.320 C 104.577 157.336,105.333 156.617,105.333 156.258 C 105.333 156.116,105.296 156.000,105.250 156.000 C 105.204 156.000,105.167 156.099,105.167 156.221 M101.929 158.244 C 101.670 159.621,101.276 160.031,99.834 160.429 C 99.421 160.544,99.233 160.643,99.417 160.651 C 100.996 160.717,102.556 159.074,102.126 157.796 C 102.086 157.679,101.998 157.881,101.929 158.244 M362.844 159.849 C 362.833 160.129,363.334 160.670,363.596 160.662 C 363.681 160.659,363.614 160.577,363.448 160.481 C 363.281 160.384,363.080 160.143,363.000 159.944 C 362.901 159.700,362.851 159.669,362.844 159.849 M98.620 161.783 C 98.454 162.745,97.908 163.321,96.911 163.589 C 96.312 163.749,96.209 163.814,96.538 163.822 C 97.866 163.855,98.988 162.694,98.801 161.480 C 98.756 161.187,98.709 161.267,98.620 161.783 M340.398 161.755 C 340.246 161.987,340.169 162.225,340.227 162.283 C 340.286 162.341,340.333 162.301,340.333 162.194 C 340.333 162.087,340.483 161.850,340.667 161.667 C 340.850 161.483,340.927 161.333,340.837 161.333 C 340.748 161.333,340.550 161.523,340.398 161.755 M356.000 161.961 C 356.000 162.377,357.757 164.167,358.166 164.167 C 358.563 164.167,358.566 164.144,358.271 163.453 C 357.850 162.464,356.000 161.249,356.000 161.961 M95.429 164.744 C 95.170 166.121,94.776 166.531,93.334 166.929 C 92.921 167.044,92.733 167.143,92.917 167.151 C 94.496 167.217,96.056 165.574,95.626 164.296 C 95.586 164.179,95.498 164.381,95.429 164.744 M92.122 168.283 C 91.954 169.237,91.407 169.819,90.411 170.103 L 89.583 170.339 90.298 170.268 C 91.558 170.142,92.436 169.158,92.299 168.024 C 92.255 167.669,92.221 167.719,92.122 168.283 M88.922 171.278 C 88.671 172.617,88.267 173.034,86.834 173.429 C 86.421 173.544,86.233 173.643,86.417 173.651 C 87.001 173.675,88.071 173.313,88.451 172.962 C 88.791 172.648,89.307 170.918,89.118 170.729 C 89.075 170.686,88.987 170.933,88.922 171.278 M85.616 174.125 C 85.578 174.194,85.493 174.470,85.429 174.740 C 85.239 175.532,84.712 176.123,83.956 176.390 C 83.568 176.528,83.384 176.646,83.547 176.654 C 84.536 176.697,85.368 175.923,85.640 174.708 C 85.788 174.045,85.779 173.834,85.616 174.125 M81.891 177.833 C 81.489 178.714,81.144 179.050,80.244 179.440 C 79.793 179.636,79.674 179.747,79.868 179.791 C 80.861 180.014,82.508 178.369,82.294 177.368 C 82.254 177.180,82.117 177.339,81.891 177.833 M305.500 177.675 C 305.821 177.770,306.252 178.037,306.458 178.267 C 306.665 178.497,306.833 178.619,306.833 178.538 C 306.833 178.229,306.043 177.668,305.492 177.586 L 304.917 177.501 305.500 177.675 M78.929 180.595 C 78.785 180.739,78.667 180.962,78.667 181.089 C 78.667 181.521,77.645 182.493,76.985 182.691 C 76.250 182.911,76.077 183.267,76.792 183.089 C 78.052 182.774,78.696 182.214,78.932 181.226 C 78.995 180.964,79.120 180.656,79.210 180.542 C 79.444 180.245,79.240 180.284,78.929 180.595 M394.422 181.113 C 394.273 181.907,393.427 182.750,392.539 182.990 C 392.158 183.092,391.806 183.242,391.756 183.324 C 391.661 183.477,392.306 183.297,393.346 182.881 C 394.075 182.589,395.193 180.500,394.620 180.500 C 394.575 180.500,394.485 180.776,394.422 181.113 M110.587 181.145 C 111.231 181.438,111.651 182.009,111.680 182.633 C 111.688 182.804,111.726 182.835,111.777 182.710 C 112.058 182.014,111.069 180.827,110.217 180.837 C 110.052 180.839,110.218 180.978,110.587 181.145 M75.391 184.333 C 74.989 185.214,74.644 185.550,73.744 185.940 C 73.293 186.136,73.174 186.247,73.368 186.291 C 74.361 186.514,76.008 184.869,75.794 183.868 C 75.754 183.680,75.617 183.839,75.391 184.333 M382.039 186.500 C 382.039 186.821,382.073 186.952,382.115 186.792 C 382.157 186.631,382.157 186.369,382.115 186.208 C 382.073 186.048,382.039 186.179,382.039 186.500 M72.429 187.095 C 72.285 187.239,72.167 187.462,72.167 187.589 C 72.167 188.021,71.145 188.993,70.485 189.191 C 69.750 189.411,69.577 189.767,70.292 189.589 C 71.552 189.274,72.196 188.714,72.432 187.726 C 72.495 187.464,72.620 187.156,72.710 187.042 C 72.944 186.745,72.740 186.784,72.429 187.095 M68.891 190.833 C 68.489 191.714,68.144 192.050,67.244 192.440 C 66.793 192.636,66.674 192.747,66.868 192.791 C 67.861 193.014,69.508 191.369,69.294 190.368 C 69.254 190.180,69.117 190.339,68.891 190.833 M189.375 190.282 C 189.535 190.323,189.798 190.323,189.958 190.282 C 190.119 190.240,189.987 190.205,189.667 190.205 C 189.346 190.205,189.215 190.240,189.375 190.282 M80.333 190.833 C 80.150 191.017,80.001 191.298,80.002 191.458 C 80.004 191.673,80.060 191.641,80.214 191.337 C 80.329 191.109,80.609 190.829,80.837 190.714 C 81.141 190.560,81.173 190.504,80.958 190.502 C 80.798 190.501,80.517 190.650,80.333 190.833 M170.000 190.833 C 170.183 191.017,170.339 191.298,170.346 191.458 C 170.355 191.641,170.392 191.670,170.445 191.536 C 170.544 191.291,170.074 190.500,169.829 190.500 C 169.740 190.500,169.817 190.650,170.000 190.833 M255.762 190.762 C 255.618 190.906,255.506 191.150,255.513 191.304 C 255.524 191.532,255.543 191.538,255.618 191.333 C 255.669 191.196,255.825 190.952,255.964 190.792 C 256.280 190.429,256.119 190.405,255.762 190.762 M319.163 190.714 C 319.391 190.829,319.671 191.109,319.786 191.337 C 319.940 191.641,319.996 191.673,319.998 191.458 C 319.999 191.298,319.850 191.017,319.667 190.833 C 319.483 190.650,319.202 190.501,319.042 190.502 C 318.827 190.504,318.859 190.560,319.163 190.714 M255.372 192.667 C 255.372 192.987,255.406 193.119,255.448 192.958 C 255.490 192.798,255.490 192.535,255.448 192.375 C 255.406 192.215,255.372 192.346,255.372 192.667 M125.205 193.833 C 125.205 194.154,125.240 194.285,125.282 194.125 C 125.323 193.965,125.323 193.702,125.282 193.542 C 125.240 193.381,125.205 193.512,125.205 193.833 M333.790 193.542 C 333.880 193.656,334.007 193.970,334.071 194.240 C 334.310 195.234,335.500 196.167,336.530 196.167 C 336.884 196.167,336.611 195.848,336.174 195.752 C 335.450 195.593,334.875 195.071,334.408 194.150 C 334.181 193.701,333.911 193.333,333.810 193.333 C 333.686 193.333,333.680 193.402,333.790 193.542 M182.875 193.615 C 183.035 193.657,183.298 193.657,183.458 193.615 C 183.619 193.573,183.487 193.539,183.167 193.539 C 182.846 193.539,182.715 193.573,182.875 193.615 M242.375 193.615 C 242.535 193.657,242.798 193.657,242.958 193.615 C 243.119 193.573,242.987 193.539,242.667 193.539 C 242.346 193.539,242.215 193.573,242.375 193.615 M181.076 194.076 C 180.851 194.301,180.673 194.657,180.682 194.867 C 180.693 195.166,180.732 195.129,180.856 194.697 C 180.967 194.311,181.177 194.074,181.549 193.912 C 181.876 193.770,181.967 193.677,181.784 193.673 C 181.620 193.670,181.301 193.851,181.076 194.076 M244.333 193.850 C 244.563 193.940,244.844 194.137,244.958 194.288 C 245.073 194.440,245.167 194.479,245.167 194.375 C 245.167 194.130,244.501 193.664,244.171 193.677 C 244.031 193.683,244.104 193.761,244.333 193.850 M250.209 193.853 C 249.517 194.053,249.189 194.562,249.089 195.594 L 249.008 196.417 249.161 195.716 C 249.446 194.405,249.757 194.097,251.049 193.842 C 251.611 193.731,251.651 193.703,251.250 193.700 C 250.975 193.698,250.507 193.767,250.209 193.853 M326.574 194.037 C 326.717 194.241,326.833 194.562,326.833 194.751 C 326.833 194.955,327.034 195.213,327.327 195.387 C 327.599 195.547,327.953 195.901,328.113 196.173 C 328.446 196.736,329.167 196.873,329.167 196.372 C 329.167 195.648,327.787 194.333,327.028 194.333 C 326.933 194.333,326.808 194.183,326.750 194.000 C 326.692 193.817,326.570 193.667,326.479 193.667 C 326.389 193.667,326.431 193.833,326.574 194.037 M175.673 194.208 C 176.227 194.488,176.467 194.732,176.616 195.167 C 176.725 195.487,176.819 195.615,176.824 195.450 C 176.839 194.955,176.387 194.245,175.921 194.032 C 175.130 193.672,174.913 193.825,175.673 194.208 M73.167 194.139 C 73.167 194.246,73.084 194.333,72.984 194.333 C 72.214 194.333,70.833 195.642,70.833 196.372 C 70.833 196.873,71.554 196.736,71.887 196.173 C 72.047 195.901,72.394 195.551,72.658 195.395 C 73.082 195.145,73.451 194.255,73.230 194.014 C 73.195 193.976,73.167 194.032,73.167 194.139 M2.011 195.216 C 1.997 195.604,2.732 196.337,3.117 196.320 C 3.350 196.310,3.361 196.286,3.167 196.215 C 2.784 196.074,2.309 195.620,2.158 195.250 C 2.038 194.957,2.020 194.953,2.011 195.216 M5.136 199.917 C 5.240 200.100,5.408 200.577,5.508 200.977 C 5.738 201.898,6.314 202.433,7.302 202.644 C 8.322 202.861,8.428 202.737,7.437 202.488 C 6.522 202.257,5.736 201.458,5.574 200.593 C 5.514 200.273,5.348 199.915,5.206 199.798 C 4.979 199.610,4.970 199.625,5.136 199.917 M121.872 206.500 C 121.872 206.821,121.906 206.952,121.948 206.792 C 121.990 206.631,121.990 206.369,121.948 206.208 C 121.906 206.048,121.872 206.179,121.872 206.500 M132.022 210.296 C 132.334 211.994,132.714 212.382,134.252 212.569 L 135.083 212.670 134.167 212.417 C 133.008 212.097,132.399 211.466,132.243 210.425 C 132.180 210.006,132.072 209.628,132.003 209.585 C 131.934 209.543,131.943 209.862,132.022 210.296 M118.108 213.803 C 117.962 214.710,117.447 215.288,116.531 215.570 C 115.925 215.756,115.850 215.813,116.197 215.822 C 117.448 215.854,118.998 213.942,118.292 213.237 C 118.248 213.192,118.164 213.447,118.108 213.803 M28.503 222.875 C 28.511 223.479,29.300 224.440,30.148 224.878 C 31.039 225.339,31.040 225.339,30.939 224.961 C 30.883 224.753,30.837 224.502,30.836 224.402 C 30.834 224.302,30.648 224.136,30.422 224.033 C 30.196 223.930,29.840 223.581,29.631 223.258 C 29.254 222.676,28.497 222.419,28.503 222.875 M144.872 223.167 C 144.872 223.487,144.906 223.619,144.948 223.458 C 144.990 223.298,144.990 223.035,144.948 222.875 C 144.906 222.715,144.872 222.846,144.872 223.167 M349.542 223.250 C 349.544 223.617,349.578 223.747,349.618 223.540 C 349.658 223.332,349.656 223.032,349.615 222.873 C 349.573 222.714,349.540 222.883,349.542 223.250 M105.372 223.333 C 105.372 223.654,105.406 223.785,105.448 223.625 C 105.490 223.465,105.490 223.202,105.448 223.042 C 105.406 222.881,105.372 223.012,105.372 223.333 M294.539 223.333 C 294.539 223.654,294.573 223.785,294.615 223.625 C 294.657 223.465,294.657 223.202,294.615 223.042 C 294.573 222.881,294.539 223.012,294.539 223.333 M280.853 223.464 C 280.814 224.233,280.357 225.006,279.798 225.249 C 279.497 225.380,279.340 225.490,279.450 225.493 C 280.227 225.519,281.162 224.210,280.952 223.393 C 280.887 223.141,280.868 223.154,280.853 223.464 M105.186 224.199 C 105.155 224.653,104.465 225.305,103.833 225.477 C 103.438 225.585,103.367 225.641,103.614 225.652 C 104.510 225.689,105.454 224.877,105.283 224.217 C 105.215 223.954,105.203 223.952,105.186 224.199 M294.673 224.282 C 294.662 224.882,295.332 225.501,296.083 225.588 L 296.750 225.665 296.167 225.484 C 295.425 225.254,295.169 225.039,294.898 224.417 C 294.712 223.990,294.679 223.971,294.673 224.282 M145.007 224.284 C 144.986 224.919,145.748 225.681,146.383 225.660 C 146.493 225.657,146.337 225.547,146.036 225.416 C 145.699 225.269,145.397 224.967,145.251 224.631 C 145.120 224.330,145.010 224.174,145.007 224.284 M34.577 226.871 C 34.710 228.145,35.445 228.850,36.609 228.822 C 37.007 228.812,36.961 228.773,36.321 228.575 C 35.380 228.285,35.015 227.897,34.721 226.875 L 34.494 226.083 34.577 226.871 M205.965 228.297 L 205.680 228.917 206.007 228.523 C 206.186 228.307,206.333 228.026,206.333 227.898 C 206.333 227.555,206.279 227.614,205.965 228.297 M98.677 227.917 C 98.644 228.273,98.357 228.532,97.733 228.769 L 97.083 229.015 97.666 228.920 C 98.327 228.813,98.917 228.313,98.783 227.976 C 98.733 227.852,98.686 227.825,98.677 227.917 M301.172 228.016 C 301.164 228.408,301.693 228.817,302.344 228.922 L 302.917 229.015 302.279 228.773 C 301.569 228.503,301.618 228.540,301.363 228.083 C 301.219 227.826,301.176 227.811,301.172 228.016 M203.542 229.115 C 203.702 229.157,203.965 229.157,204.125 229.115 C 204.285 229.073,204.154 229.039,203.833 229.039 C 203.512 229.039,203.381 229.073,203.542 229.115 M199.550 230.000 C 199.550 230.504,199.581 230.710,199.619 230.458 C 199.658 230.206,199.658 229.794,199.619 229.542 C 199.581 229.290,199.550 229.496,199.550 230.000 " stroke="none" fill="#000000" fill-rule="evenodd"></path><path id="path1" d="M131.833 0.833 L 131.833 1.667 130.500 1.667 C 128.688 1.667,128.500 1.852,128.500 3.644 L 128.500 4.955 127.317 5.040 C 125.628 5.161,125.499 5.327,125.323 7.607 C 125.160 9.719,125.145 192.172,125.307 194.452 C 125.444 196.377,125.544 196.491,127.204 196.617 L 128.457 196.712 128.540 200.814 C 128.645 206.031,128.658 206.066,130.637 206.273 L 131.622 206.376 131.736 207.890 C 131.799 208.722,131.913 209.481,131.990 209.577 C 132.066 209.672,132.183 210.076,132.249 210.475 C 132.416 211.490,133.040 212.122,134.125 212.375 L 135.000 212.579 135.007 213.331 C 135.029 215.537,135.321 215.924,137.098 216.090 L 138.333 216.206 138.333 217.436 C 138.333 219.113,138.553 219.333,140.226 219.333 L 141.451 219.333 141.555 220.559 C 141.719 222.501,141.695 222.478,143.708 222.622 L 145.000 222.714 145.000 223.363 C 145.000 225.250,146.558 225.992,150.542 225.999 L 151.333 226.000 151.333 227.148 C 151.333 229.055,151.363 229.071,154.902 229.141 L 157.833 229.200 157.833 230.016 L 157.833 230.833 178.667 230.833 L 199.500 230.833 199.500 230.026 L 199.500 229.219 202.220 229.117 C 205.912 228.978,206.333 228.738,206.333 226.776 L 206.333 226.041 207.958 225.895 L 209.583 225.750 209.667 225.039 C 209.734 224.464,209.850 224.267,210.275 224.010 C 210.563 223.835,210.936 223.461,211.102 223.179 L 211.405 222.667 213.027 222.667 L 214.648 222.667 214.949 223.178 C 215.115 223.460,215.490 223.838,215.782 224.019 C 216.224 224.293,216.324 224.468,216.366 225.050 L 216.417 225.750 218.042 225.900 L 219.667 226.050 219.667 226.833 C 219.667 228.837,219.943 228.997,223.625 229.123 L 226.333 229.216 226.333 230.025 L 226.333 230.833 247.250 230.833 L 268.167 230.833 268.167 230.019 L 268.167 229.204 271.101 229.140 C 274.634 229.063,274.667 229.045,274.667 227.173 L 274.667 226.049 276.208 225.936 C 279.481 225.696,280.502 225.180,280.830 223.599 L 281.015 222.708 282.322 222.594 C 284.153 222.435,284.468 222.052,284.493 219.958 L 284.500 219.333 285.713 219.333 C 286.997 219.333,287.653 219.066,287.682 218.532 C 287.690 218.377,287.764 218.483,287.847 218.768 C 288.003 219.307,288.733 219.500,290.608 219.500 L 291.167 219.500 291.167 220.718 C 291.167 222.436,291.282 222.552,293.106 222.662 L 294.580 222.750 294.695 223.552 C 294.833 224.523,295.200 225.124,295.794 225.350 C 296.395 225.578,299.234 225.998,300.187 225.999 L 300.957 226.000 301.068 226.840 C 301.344 228.915,302.027 229.157,307.625 229.163 L 310.667 229.167 310.667 230.000 L 310.667 230.833 328.417 230.833 L 346.167 230.833 346.167 230.016 L 346.167 229.199 347.208 229.090 C 349.395 228.859,349.369 228.901,349.462 225.397 L 349.533 222.711 350.699 222.603 C 352.807 222.407,352.706 222.677,352.796 217.019 C 352.836 214.509,352.923 212.542,352.990 212.650 C 353.056 212.757,353.404 212.891,353.763 212.948 C 354.240 213.023,354.564 213.222,354.963 213.682 C 355.263 214.030,355.657 214.361,355.838 214.418 C 356.098 214.501,356.167 214.672,356.167 215.243 C 356.167 216.038,356.317 216.167,357.252 216.167 C 357.665 216.167,357.839 216.254,357.917 216.502 C 357.976 216.686,358.318 217.073,358.678 217.363 C 359.183 217.768,359.334 218.007,359.336 218.403 C 359.339 219.129,359.518 219.331,360.263 219.448 C 360.740 219.523,361.064 219.722,361.463 220.182 C 361.763 220.530,362.153 220.860,362.329 220.915 C 362.574 220.993,362.661 221.201,362.700 221.800 L 362.750 222.583 363.533 222.634 C 364.132 222.672,364.340 222.759,364.418 223.004 C 364.474 223.180,364.815 223.577,365.176 223.886 C 365.611 224.258,365.833 224.587,365.833 224.859 C 365.833 225.643,366.141 225.820,367.708 225.939 L 369.167 226.049 369.167 227.408 C 369.167 229.119,369.215 229.167,370.950 229.167 L 372.333 229.167 372.333 230.000 L 372.333 230.833 384.500 230.833 L 396.667 230.833 396.667 230.009 L 396.667 229.185 397.458 229.134 L 398.250 229.083 398.301 228.292 L 398.352 227.500 399.176 227.500 L 400.000 227.500 400.000 215.333 L 400.000 203.167 399.167 203.167 L 398.333 203.167 398.333 201.845 C 398.333 200.112,398.222 200.000,396.501 200.000 L 395.192 200.000 395.074 198.496 C 394.936 196.731,395.073 196.867,393.286 196.729 L 391.866 196.620 391.808 195.221 C 391.738 193.539,391.703 193.506,389.973 193.503 L 388.695 193.500 388.584 192.208 C 388.416 190.249,388.527 190.373,386.842 190.242 L 385.366 190.126 385.308 188.724 C 385.238 187.028,385.213 187.006,383.375 187.003 L 382.000 187.000 382.000 185.680 C 382.000 184.030,381.927 183.842,381.274 183.798 C 380.986 183.779,383.150 183.723,386.083 183.673 C 390.630 183.597,391.478 183.543,391.833 183.311 C 392.063 183.162,392.468 182.989,392.735 182.927 C 393.420 182.767,394.285 181.843,394.419 181.128 C 394.549 180.435,394.768 180.340,396.250 180.333 C 398.066 180.325,398.330 180.035,398.332 178.042 L 398.333 177.167 399.167 177.167 L 400.000 177.167 400.000 159.333 L 400.000 141.500 399.167 141.500 L 398.333 141.500 398.333 138.678 C 398.333 135.278,398.259 135.000,397.349 135.000 C 396.839 135.000,396.665 134.926,396.585 134.671 C 396.527 134.491,396.195 134.097,395.847 133.796 L 395.213 133.250 395.096 131.083 C 394.956 128.487,394.966 128.500,393.135 128.500 L 391.833 128.500 391.825 126.792 C 391.804 122.674,391.610 122.241,389.708 122.064 L 388.500 121.952 388.500 120.675 C 388.500 118.973,388.405 118.869,386.725 118.732 L 385.367 118.622 385.308 117.336 C 385.229 115.593,385.132 115.500,383.396 115.500 L 382.000 115.500 382.000 114.104 C 382.000 112.386,381.920 112.303,380.180 112.202 L 378.878 112.126 378.784 110.872 C 378.660 109.239,378.532 109.119,376.792 109.006 L 375.417 108.917 375.314 107.964 C 375.119 106.151,374.616 105.891,370.958 105.713 L 369.000 105.618 369.000 104.424 C 369.000 102.549,369.080 102.593,365.531 102.531 L 362.534 102.479 362.475 101.164 C 362.385 99.197,362.387 99.198,356.556 99.179 L 352.862 99.167 352.744 97.908 C 352.614 96.521,352.427 96.221,351.620 96.099 C 350.672 95.956,331.019 95.876,322.528 95.981 C 313.549 96.093,313.833 96.058,313.833 97.035 C 313.833 97.203,313.422 97.751,312.920 98.254 L 312.007 99.167 308.962 99.174 C 304.214 99.185,304.173 99.203,304.169 101.208 L 304.167 102.500 301.179 102.500 C 297.566 102.500,297.667 102.448,297.667 104.319 L 297.667 105.615 295.011 105.724 C 291.363 105.874,291.170 105.999,291.168 108.208 L 291.167 109.000 289.865 109.000 C 288.066 109.000,287.936 109.118,287.859 110.819 L 287.798 112.167 286.660 112.167 C 284.862 112.167,284.667 112.295,284.667 113.475 C 284.667 114.016,284.620 114.693,284.563 114.979 L 284.458 115.500 283.068 115.500 C 281.393 115.500,281.333 115.565,281.333 117.406 L 281.333 118.667 280.208 118.683 C 278.248 118.712,278.272 118.692,278.108 120.465 L 277.965 122.000 276.834 122.000 C 275.172 122.000,274.964 122.218,274.867 124.058 C 274.805 125.246,274.744 125.500,274.521 125.501 C 272.617 125.507,271.820 126.793,271.565 130.271 L 271.454 131.791 270.374 131.878 C 268.557 132.024,268.356 132.570,268.340 137.417 L 268.332 139.750 267.825 140.083 C 267.546 140.267,267.165 140.660,266.979 140.958 C 266.705 141.396,266.531 141.500,266.076 141.500 C 265.133 141.500,265.117 141.603,265.032 148.358 L 264.956 154.466 263.897 154.579 C 261.718 154.813,261.860 153.602,261.846 172.042 L 261.833 187.000 261.125 187.004 C 259.143 187.015,258.793 187.295,258.675 188.958 L 258.583 190.250 257.418 190.379 C 255.991 190.536,255.659 190.815,255.555 191.940 C 255.403 193.585,255.486 193.500,254.038 193.500 C 252.598 193.500,250.443 193.894,249.882 194.259 C 249.545 194.479,249.339 194.982,249.088 196.208 L 248.994 196.667 247.163 196.667 L 245.333 196.667 245.332 196.042 C 245.329 193.996,244.890 193.716,241.444 193.559 L 239.039 193.450 238.926 192.153 C 238.786 190.557,238.665 190.442,237.017 190.333 L 235.750 190.250 235.667 188.805 C 235.565 187.040,235.621 187.097,233.903 187.025 L 232.500 186.966 232.486 147.608 C 232.470 102.375,232.592 105.836,231.010 105.831 C 230.684 105.830,230.147 105.785,229.817 105.730 L 229.216 105.631 229.116 103.413 C 228.957 99.885,228.273 99.193,224.917 99.162 C 224.543 99.159,224.311 99.014,224.000 98.588 C 223.771 98.275,223.413 97.926,223.206 97.813 C 222.955 97.677,222.794 97.394,222.726 96.974 C 222.561 95.941,222.979 95.984,213.000 95.984 C 203.137 95.984,203.333 95.966,203.333 96.843 C 203.333 97.187,203.096 97.549,202.439 98.206 L 201.545 99.100 199.814 99.301 C 197.131 99.613,197.054 99.719,196.888 103.360 L 196.783 105.636 195.486 105.751 C 194.496 105.839,194.117 105.945,193.886 106.201 C 193.596 106.521,193.582 108.161,193.539 146.750 L 193.495 186.966 192.094 187.025 C 190.379 187.097,190.435 187.040,190.333 188.805 L 190.250 190.250 188.868 190.333 C 187.235 190.432,187.224 190.443,187.072 192.180 L 186.961 193.450 184.571 193.553 C 181.124 193.702,180.671 193.991,180.668 196.042 L 180.667 196.667 178.771 196.667 L 176.876 196.667 176.764 195.818 C 176.627 194.787,176.165 194.268,175.145 194.002 C 174.745 193.897,174.186 193.742,173.905 193.656 C 173.623 193.570,172.788 193.500,172.049 193.500 C 170.578 193.500,170.508 193.445,170.502 192.286 C 170.496 190.963,170.047 190.571,168.291 190.357 L 167.417 190.250 167.321 189.017 C 167.200 187.466,166.961 187.232,165.327 187.071 L 164.167 186.957 164.166 99.770 C 164.165 8.550,164.180 10.604,163.512 9.355 C 163.265 8.895,162.791 8.657,161.855 8.524 L 161.083 8.414 161.047 7.415 C 161.000 6.119,160.687 3.732,160.474 3.040 C 160.271 2.383,159.893 2.159,158.583 1.918 L 157.583 1.735 157.533 0.867 L 157.483 0.000 144.658 0.000 L 131.833 0.000 131.833 0.833 M203.708 47.339 C 203.408 47.459,203.333 47.621,203.333 48.150 C 203.333 48.661,203.259 48.834,203.005 48.915 C 202.824 48.973,202.430 49.306,202.130 49.657 C 201.602 50.272,201.530 50.300,200.000 50.494 C 197.114 50.861,197.043 50.955,196.886 54.574 L 196.783 56.967 195.460 57.027 C 193.409 57.120,193.446 56.943,193.532 66.250 C 193.594 72.939,193.594 72.940,194.442 73.099 C 194.834 73.173,195.309 73.498,195.926 74.115 L 196.833 75.022 196.833 76.653 C 196.833 79.302,196.898 79.388,199.023 79.586 L 200.130 79.689 200.196 80.844 C 200.313 82.914,199.702 82.817,212.750 82.825 C 226.098 82.833,225.647 82.901,225.793 80.862 C 225.887 79.538,225.926 79.506,227.440 79.502 C 228.879 79.498,229.041 79.257,229.180 76.898 L 229.298 74.917 230.133 74.058 C 230.617 73.561,231.181 73.153,231.473 73.089 C 232.423 72.881,232.412 72.953,232.472 66.516 C 232.560 57.188,232.557 57.174,230.483 57.012 L 229.250 56.917 229.141 54.827 C 228.958 51.330,228.759 50.972,226.828 50.678 C 224.492 50.324,224.501 50.328,223.562 49.373 C 222.892 48.692,222.667 48.341,222.667 47.978 C 222.667 47.609,222.563 47.452,222.239 47.329 C 221.693 47.122,204.226 47.130,203.708 47.339 M55.417 95.992 C 46.715 96.100,47.454 95.915,47.241 98.042 L 47.128 99.167 43.439 99.179 C 37.613 99.198,37.615 99.198,37.525 101.164 L 37.466 102.479 34.491 102.531 C 30.980 102.593,31.107 102.526,31.025 104.341 L 30.965 105.667 29.691 105.667 C 26.002 105.668,24.667 106.370,24.667 108.311 L 24.667 108.966 23.256 109.025 C 21.469 109.099,21.342 109.214,21.216 110.872 L 21.122 112.126 19.820 112.202 C 18.080 112.303,18.000 112.386,18.000 114.104 L 18.000 115.500 16.604 115.500 C 14.868 115.500,14.771 115.593,14.692 117.336 L 14.633 118.622 13.276 118.735 C 11.602 118.874,11.602 118.875,11.500 120.549 L 11.417 121.917 10.199 122.099 C 8.389 122.370,8.200 122.824,8.176 126.958 L 8.167 128.500 6.865 128.500 C 5.034 128.500,5.044 128.487,4.904 131.083 L 4.787 133.250 4.153 133.796 C 3.805 134.097,3.473 134.491,3.415 134.671 C 3.335 134.926,3.161 135.000,2.651 135.000 C 1.741 135.000,1.667 135.278,1.667 138.678 L 1.667 141.500 0.833 141.500 L 0.000 141.500 0.000 164.167 L 0.000 186.833 0.833 186.833 L 1.667 186.833 1.667 189.819 C 1.667 194.413,2.083 195.997,3.354 196.241 C 4.957 196.549,4.778 196.341,4.910 198.050 C 4.975 198.893,5.122 199.696,5.236 199.833 C 5.349 199.971,5.529 200.386,5.634 200.757 C 5.875 201.604,6.550 202.252,7.435 202.486 L 8.120 202.667 8.209 204.125 C 8.342 206.299,8.368 206.327,10.279 206.331 L 11.308 206.333 11.426 207.839 C 11.566 209.633,11.603 209.667,13.406 209.667 L 14.667 209.667 14.667 211.063 C 14.667 212.758,14.693 212.786,16.449 212.932 L 17.797 213.045 17.897 213.647 C 17.951 213.979,17.997 214.604,17.998 215.036 C 18.000 216.031,18.230 216.167,19.906 216.167 L 21.167 216.167 21.167 217.322 C 21.167 219.213,21.214 219.268,22.970 219.405 L 24.465 219.522 24.527 220.758 C 24.615 222.508,24.679 222.552,27.213 222.636 L 29.263 222.705 29.637 223.275 C 29.843 223.589,30.190 223.927,30.408 224.026 C 30.703 224.161,30.841 224.405,30.945 224.979 L 31.085 225.750 32.817 225.917 L 34.548 226.083 34.748 226.875 C 35.188 228.613,36.722 229.167,41.094 229.167 L 44.000 229.167 44.000 230.000 L 44.000 230.833 66.667 230.833 L 89.333 230.833 89.333 230.000 L 89.333 229.167 92.375 229.163 C 97.973 229.157,98.656 228.915,98.932 226.840 L 99.043 226.000 99.813 225.999 C 100.766 225.998,103.605 225.578,104.206 225.350 C 104.800 225.124,105.167 224.523,105.305 223.552 L 105.420 222.750 106.854 222.664 C 108.738 222.550,108.833 222.463,108.833 220.837 L 108.833 219.548 110.371 219.432 C 111.986 219.310,112.160 219.217,112.164 218.469 C 112.168 217.778,113.845 216.167,114.561 216.167 C 114.857 216.167,115.171 216.100,115.258 216.018 C 115.345 215.937,115.843 215.749,116.364 215.600 C 117.438 215.294,117.933 214.796,118.098 213.858 C 118.156 213.524,118.308 213.084,118.435 212.881 C 118.585 212.642,118.667 212.018,118.667 211.113 L 118.667 209.714 120.034 209.621 C 120.997 209.555,121.458 209.450,121.591 209.267 C 122.175 208.469,122.117 191.217,121.528 190.628 C 121.407 190.507,120.759 190.393,119.993 190.358 L 118.667 190.298 118.667 188.971 C 118.667 187.059,118.615 187.000,116.930 187.000 C 115.316 187.000,115.339 187.028,115.336 185.135 C 115.333 183.789,115.355 183.805,113.411 183.704 L 111.869 183.623 111.767 182.984 C 111.411 180.760,110.732 180.584,102.547 180.583 C 95.680 180.583,96.163 180.448,96.037 182.405 L 95.956 183.667 94.103 183.675 C 89.857 183.695,89.610 183.803,89.525 185.674 L 89.465 187.000 88.181 187.000 C 86.444 187.000,86.329 187.103,86.214 188.775 L 86.122 190.118 84.353 190.221 C 80.698 190.433,80.256 190.651,79.969 192.386 L 79.784 193.500 77.017 193.517 C 73.565 193.537,73.461 193.563,73.264 194.444 C 73.157 194.922,72.971 195.211,72.645 195.403 C 72.388 195.555,72.047 195.901,71.887 196.173 L 71.595 196.667 67.464 196.667 L 63.333 196.667 63.333 195.845 C 63.333 195.173,63.393 195.003,63.662 194.918 C 63.843 194.861,64.237 194.528,64.537 194.178 C 64.954 193.692,65.255 193.513,65.812 193.419 C 66.333 193.332,66.565 193.204,66.626 192.972 C 66.673 192.791,66.997 192.532,67.356 192.388 C 68.074 192.101,68.778 191.360,68.938 190.725 C 68.995 190.496,69.220 190.241,69.438 190.159 C 69.667 190.071,69.833 189.872,69.833 189.684 C 69.833 189.458,69.988 189.326,70.346 189.247 C 71.034 189.096,71.938 188.276,72.161 187.600 C 72.264 187.288,72.522 186.968,72.755 186.861 C 72.981 186.758,73.167 186.559,73.167 186.419 C 73.167 186.277,73.463 186.046,73.834 185.897 C 74.571 185.602,75.277 184.866,75.438 184.225 C 75.495 183.996,75.720 183.741,75.938 183.659 C 76.167 183.571,76.333 183.372,76.333 183.184 C 76.333 182.958,76.488 182.826,76.846 182.747 C 77.534 182.596,78.438 181.776,78.661 181.100 C 78.764 180.788,79.022 180.468,79.255 180.361 C 79.481 180.258,79.667 180.061,79.667 179.922 C 79.667 179.784,79.945 179.555,80.286 179.413 C 81.131 179.059,81.493 178.707,81.865 177.875 C 82.040 177.485,82.288 177.167,82.416 177.167 C 82.545 177.167,82.710 177.065,82.783 176.941 C 82.857 176.816,83.309 176.586,83.789 176.428 C 84.717 176.123,85.224 175.600,85.426 174.740 C 85.578 174.094,86.142 173.568,86.847 173.416 C 88.128 173.140,88.640 172.625,88.919 171.333 C 89.079 170.592,89.491 170.237,90.352 170.100 C 91.253 169.956,91.956 169.253,92.100 168.352 C 92.237 167.491,92.592 167.079,93.333 166.919 C 94.629 166.640,95.140 166.129,95.419 164.833 C 95.579 164.092,95.991 163.737,96.852 163.600 C 97.753 163.456,98.456 162.753,98.600 161.852 C 98.737 160.991,99.092 160.579,99.833 160.419 C 101.147 160.136,101.675 159.596,101.921 158.287 C 102.044 157.632,102.301 157.494,103.848 157.254 C 104.695 157.123,105.121 156.587,105.370 155.335 L 105.583 154.265 106.621 154.078 C 108.091 153.814,108.663 153.131,108.666 151.635 C 108.667 151.080,108.761 151.021,109.949 150.828 C 111.207 150.623,111.596 150.221,111.870 148.841 L 112.083 147.765 113.121 147.578 C 114.591 147.314,115.163 146.631,115.166 145.135 C 115.167 144.580,115.261 144.521,116.449 144.328 C 118.071 144.064,118.667 142.764,118.667 139.483 L 118.667 138.216 120.030 138.111 C 120.781 138.053,121.474 137.926,121.572 137.828 C 121.949 137.452,122.135 126.778,121.855 121.606 C 121.712 118.967,121.614 118.833,119.815 118.833 L 118.667 118.833 118.667 117.489 C 118.667 115.557,118.617 115.500,116.932 115.500 L 115.542 115.500 115.438 114.979 C 115.380 114.693,115.333 114.016,115.333 113.475 C 115.333 112.295,115.138 112.167,113.340 112.167 L 112.202 112.167 112.143 110.859 C 112.062 109.091,111.969 109.000,110.230 109.000 L 108.833 109.000 108.832 108.208 C 108.830 105.999,108.637 105.874,104.989 105.724 L 102.333 105.615 102.333 104.319 C 102.333 102.448,102.434 102.500,98.821 102.500 L 95.833 102.500 95.833 101.199 C 95.833 99.162,96.038 99.261,91.660 99.192 L 87.960 99.133 87.063 98.237 C 86.570 97.744,86.167 97.222,86.167 97.076 C 86.167 96.563,85.823 96.180,85.290 96.099 C 84.425 95.968,63.432 95.892,55.417 95.992 M333.554 132.639 C 333.777 134.773,333.574 134.709,340.583 134.844 C 343.700 134.904,346.258 134.964,346.268 134.977 C 346.277 134.989,346.329 135.574,346.382 136.275 C 346.507 137.934,346.622 138.040,348.390 138.133 L 349.792 138.206 349.900 139.121 C 350.093 140.768,350.263 140.898,352.661 141.233 C 354.342 141.468,354.350 141.471,355.060 142.235 C 355.453 142.656,355.862 143.000,355.970 143.000 C 356.092 143.000,356.167 143.283,356.167 143.740 C 356.167 144.147,356.232 144.521,356.311 144.570 C 356.391 144.619,356.507 145.045,356.570 145.518 C 356.711 146.579,357.318 147.259,358.267 147.417 C 358.624 147.477,359.003 147.553,359.109 147.585 C 359.222 147.620,359.350 148.232,359.420 149.066 C 359.576 150.934,359.619 150.982,361.292 151.110 L 362.667 151.216 362.668 154.650 C 362.669 160.146,362.806 160.548,364.752 160.756 L 365.833 160.872 365.820 164.644 C 365.813 166.719,365.767 168.304,365.718 168.167 C 365.533 167.651,365.100 167.500,363.801 167.500 L 362.500 167.500 362.497 166.208 C 362.494 164.337,362.291 164.219,359.042 164.181 L 357.834 164.167 356.978 163.292 C 356.507 162.810,356.073 162.192,356.013 161.918 C 355.811 160.995,355.705 160.983,348.500 161.052 C 340.255 161.131,340.384 161.097,340.087 163.292 L 339.969 164.167 338.776 164.183 C 336.971 164.208,336.759 164.302,336.700 165.100 C 336.660 165.642,336.555 165.828,336.151 166.066 C 335.876 166.228,335.486 166.616,335.284 166.929 C 334.975 167.405,334.818 167.496,334.298 167.498 C 333.490 167.501,333.333 167.808,333.333 169.386 C 333.333 170.801,333.305 170.827,331.740 170.831 C 330.126 170.835,330.250 170.036,330.250 180.397 C 330.250 190.907,330.075 189.968,332.059 190.118 L 333.333 190.215 333.333 191.510 C 333.333 192.948,333.425 193.333,333.765 193.333 C 333.891 193.333,334.181 193.701,334.408 194.150 C 334.872 195.064,335.450 195.593,336.157 195.748 C 336.487 195.820,336.655 195.976,336.709 196.259 L 336.787 196.667 332.596 196.667 L 328.405 196.667 328.113 196.173 C 327.953 195.901,327.599 195.547,327.327 195.387 C 327.021 195.206,326.833 194.957,326.833 194.733 C 326.833 193.710,326.464 193.588,323.205 193.531 L 320.213 193.479 320.030 192.376 C 319.744 190.650,319.340 190.451,315.678 190.229 L 313.878 190.119 313.786 188.776 C 313.671 187.100,313.559 187.000,311.801 187.000 L 310.500 187.000 310.500 185.699 C 310.500 183.967,310.411 183.869,308.708 183.731 L 307.333 183.619 307.332 182.518 C 307.332 181.912,307.264 181.154,307.180 180.833 C 307.097 180.512,306.980 179.892,306.921 179.455 C 306.764 178.307,306.306 177.860,305.042 177.621 L 304.000 177.424 303.993 175.170 C 303.980 171.312,303.819 170.964,301.999 170.862 L 300.833 170.796 300.833 164.255 L 300.833 157.715 302.016 157.605 C 304.016 157.419,304.000 157.452,304.000 153.581 L 304.000 151.038 305.168 150.972 C 307.011 150.867,307.313 150.156,307.329 145.875 L 307.333 144.667 308.489 144.667 C 310.439 144.667,310.500 144.611,310.500 142.844 L 310.500 141.346 312.042 141.298 C 313.439 141.254,313.598 141.216,313.742 140.889 C 313.831 140.685,314.110 140.486,314.382 140.432 C 315.017 140.305,315.975 139.332,316.105 138.682 C 316.208 138.169,316.214 138.167,317.313 138.159 C 319.858 138.143,320.012 138.044,320.239 136.288 L 320.417 134.917 325.667 134.815 C 332.115 134.689,332.679 134.549,332.924 133.012 C 333.193 131.328,333.404 131.203,333.554 132.639 M66.896 133.924 C 67.037 134.290,68.032 134.666,68.870 134.669 C 69.262 134.671,69.696 134.744,69.833 134.833 C 70.006 134.945,69.669 134.996,68.740 134.997 C 66.936 135.001,66.830 135.095,66.714 136.777 L 66.622 138.122 65.269 138.233 C 63.594 138.369,63.500 138.473,63.500 140.181 L 63.500 141.466 62.092 141.525 C 60.370 141.596,60.327 141.638,60.213 143.291 L 60.122 144.621 58.769 144.725 C 57.093 144.854,57.000 144.957,57.000 146.699 L 57.000 148.000 55.699 148.000 C 53.923 148.000,53.801 148.110,53.704 149.786 L 53.626 151.122 52.307 151.212 C 50.559 151.332,50.500 151.394,50.500 153.104 L 50.500 154.500 49.199 154.500 C 47.404 154.500,47.270 154.621,47.194 156.296 L 47.133 157.622 45.784 157.734 C 44.026 157.881,44.000 157.908,44.000 159.604 L 44.000 161.000 42.699 161.000 C 40.904 161.000,40.770 161.121,40.694 162.795 L 40.633 164.120 39.297 164.223 C 37.541 164.358,37.500 164.401,37.500 166.104 L 37.500 167.500 35.833 167.500 L 34.167 167.500 34.167 164.191 L 34.167 160.882 35.249 160.780 C 37.283 160.591,37.210 160.779,37.296 155.482 L 37.366 151.214 38.724 151.109 C 40.379 150.982,40.425 150.931,40.580 149.066 C 40.650 148.232,40.778 147.620,40.891 147.585 C 40.997 147.553,41.376 147.477,41.733 147.417 C 42.682 147.259,43.289 146.579,43.430 145.518 C 43.493 145.045,43.609 144.619,43.689 144.570 C 43.768 144.521,43.833 144.152,43.833 143.751 C 43.833 143.168,43.900 143.001,44.168 142.916 C 44.352 142.858,44.736 142.521,45.020 142.167 C 45.566 141.488,45.517 141.503,48.568 141.057 C 49.531 140.916,49.957 140.398,50.092 139.207 L 50.205 138.211 51.716 138.125 C 53.337 138.032,53.667 137.851,53.667 137.052 C 53.667 136.809,53.988 136.352,54.542 135.808 L 55.417 134.947 60.417 134.834 C 65.602 134.716,66.289 134.621,66.452 133.998 C 66.556 133.602,66.760 133.568,66.896 133.924 " stroke="none" fill="#5ab031" fill-rule="evenodd"></path></g></svg>