<?xml version="1.0" standalone="no"?>
<!DOCTYPE svg PUBLIC "-//W3C//DTD SVG 20010904//EN"
 "http://www.w3.org/TR/2001/REC-SVG-20010904/DTD/svg10.dtd">
<svg version="1.0" xmlns="http://www.w3.org/2000/svg"
 width="123.000000pt" height="71.000000pt" viewBox="0 0 123.000000 71.000000"
 preserveAspectRatio="xMidYMid meet">

<g transform="translate(0.000000,71.000000) scale(0.100000,-0.100000)"
fill="#000000" stroke="none">
<path d="M405 686 c-14 -21 -16 -62 -13 -298 3 -236 5 -277 20 -305 40 -71
128 -100 203 -65 39 18 41 18 84 -1 53 -23 106 -19 151 13 l30 22 52 -26 c78
-39 138 -31 138 19 0 32 -25 55 -61 55 -48 0 -89 47 -89 102 1 65 44 108 110
108 38 0 100 -56 100 -90 0 -37 19 -60 48 -60 36 0 52 17 52 52 0 78 -66 160
-147 184 -138 40 -263 -57 -263 -203 0 -61 -21 -93 -60 -93 -50 0 -60 28 -60
167 0 114 -1 123 -21 134 -16 8 -28 8 -45 0 -23 -10 -24 -14 -24 -134 0 -138
-10 -167 -59 -167 -59 0 -61 9 -61 308 0 233 -2 273 -16 286 -22 23 -51 20
-69 -8z"/>
<path d="M626 547 c-22 -16 -18 -65 6 -80 28 -18 68 7 68 42 0 44 -39 63 -74
38z"/>
<path d="M141 395 c-145 -46 -187 -232 -75 -337 67 -63 151 -74 234 -30 60 31
76 59 54 91 -19 26 -48 27 -81 1 -15 -12 -41 -20 -62 -20 l-36 0 91 92 c50 51
94 101 97 110 7 20 -25 63 -62 82 -42 22 -111 27 -160 11z m89 -93 c0 -10
-113 -122 -123 -122 -4 0 -7 14 -7 31 0 43 56 99 99 99 17 0 31 -4 31 -8z"/>
<path d="M1036 179 c-21 -30 -3 -62 71 -128 60 -54 82 -61 107 -35 27 27 18
47 -52 117 -72 72 -100 82 -126 46z"/>
</g>
</svg>
